<svg width="462" height="500" viewBox="0 0 462 500" fill="none" xmlns="http://www.w3.org/2000/svg">
<path d="M-158.7 499.3C-98.9 487.2 -148.1 314.1 -25.4 206.9C17.2 169.7 42.7 173.4 104.1 115.9C174.4 50.1 164.5 23.2 211.9 -13.1C312.5 -90.2 455 -43.9 461.3 -75.4C467 -103.7 353 -147.6 343.5 -219.5C343.1 -222.5 342.8 -225.6 341.9 -231.4C338.3 -252.2 328 -290 295.4 -321.3C228.7 -385.3 118.7 -373.9 95.7 -371.4C-57.7 -355.4 -148.5 -231.6 -186.6 -179.7C-208.5 -149.8 -231.2 -97.4 -276.6 7.29999C-347.6 171.2 -355.3 220.4 -348.6 248.2C-347.6 252.3 -346.3 255.3 -344 261.3C-309.1 354.8 -217.2 511.1 -158.7 499.3Z" fill="url(#paint0_linear)"/>
<defs>
<linearGradient id="paint0_linear" x1="-131.35" y1="-279.193" x2="177.985" y2="329.255" gradientUnits="userSpaceOnUse">
<stop offset="0.3744" stop-color="#FF75F7"/>
<stop offset="0.4643" stop-color="#CA8DF9"/>
<stop offset="0.5544" stop-color="#9EA2FB"/>
<stop offset="0.6452" stop-color="#79B3FC"/>
<stop offset="0.7354" stop-color="#5CC0FE"/>
<stop offset="0.825" stop-color="#47C9FE"/>
<stop offset="0.9135" stop-color="#3BCFFF"/>
<stop offset="1" stop-color="#37D1FF"/>
</linearGradient>
</defs>
</svg>
