<svg width="733" height="641" viewBox="0 0 733 641" fill="none" xmlns="http://www.w3.org/2000/svg">
<path d="M1041 0.599935C1013.4 -1.50007 992.4 105.3 890.7 204.9C880.4 215 865.6 228.6 848.7 252.2C805.9 311.8 810.4 349.8 787.8 391.9C751.3 459.8 701.1 432.2 569.5 520C495.2 569.6 494.9 589.2 431.4 620.3C416.5 627.6 404.6 632.4 393.7 636C341.8 653.1 288.6 665.2 288.6 665.2C199.1 684.1 205.4 693 132.9 707C36.9 725.5 7.79999 713.4 1.49999 729.2C-13.1 765.7 126.3 867.6 267.5 921.2C319.3 940.8 395.6 968.6 497.3 964.2C553.2 961.8 616 949.8 683 921C723.2 903.7 795.3 871.9 870.4 794.5C886.4 778.1 950 710.7 1002.5 593.6C1124.1 322.5 1088 4.09993 1041 0.599935Z" fill="url(#paint0_linear)"/>
<defs>
<linearGradient id="paint0_linear" x1="856.946" y1="812.705" x2="503.778" y2="346.439" gradientUnits="userSpaceOnUse">
<stop offset="0.3744" stop-color="#FF75F7"/>
<stop offset="0.4643" stop-color="#CA8DF9"/>
<stop offset="0.5544" stop-color="#9EA2FB"/>
<stop offset="0.6452" stop-color="#79B3FC"/>
<stop offset="0.7354" stop-color="#5CC0FE"/>
<stop offset="0.825" stop-color="#47C9FE"/>
<stop offset="0.9135" stop-color="#3BCFFF"/>
<stop offset="1" stop-color="#37D1FF"/>
</linearGradient>
</defs>
</svg>
