<svg width="148" height="103" viewBox="0 0 148 103" fill="none" xmlns="http://www.w3.org/2000/svg">
<path d="M144.2 16.1C142.5 9.79998 137.5 4.79998 131.2 3.09998C119.8 -2.43187e-05 73.9 0 73.9 0C73.9 0 28 -2.43187e-05 16.6 3.09998C10.3 4.79998 5.30001 9.79998 3.60001 16.1C0.500006 27.5 0.5 51.4 0.5 51.4C0.5 51.4 0.500006 75.2999 3.60001 86.7C5.30001 93 10.3 98 16.6 99.7C28 102.8 73.9 102.8 73.9 102.8C73.9 102.8 119.8 102.8 131.2 99.7C137.5 98 142.5 93 144.2 86.7C147.3 75.2999 147.3 51.4 147.3 51.4C147.3 51.4 147.2 27.6 144.2 16.1ZM59.2 73.4V29.4L97.3 51.4L59.2 73.4Z" fill="white"/>
</svg>
