<svg width="198" height="263" viewBox="0 0 198 263" fill="none" xmlns="http://www.w3.org/2000/svg">
<path d="M35.8353 130.185C63.1287 145.977 91.3957 194.986 102.118 217.517C133.859 272.494 245.861 193.255 197.945 145.902C150.029 98.5483 231.502 39.9358 128.441 38.1384C25.3791 36.341 1.71852 110.444 35.8353 130.185Z" fill="#0047FF"/>
<path d="M77.4182 49.7642C77.3887 80.8436 49.4859 129.124 35.5382 149.379C4.25367 203.566 127.086 260.117 143.892 195.882C160.698 131.646 250.878 172.304 201.623 83.4482C152.367 -5.40786 77.455 10.9148 77.4182 49.7642Z" fill="url(#paint0_linear)"/>
<path d="M77.4182 49.7642C77.3887 80.8436 49.4859 129.124 35.5382 149.379C4.25367 203.566 127.086 260.117 143.892 195.882C160.698 131.646 250.878 172.304 201.623 83.4482C152.367 -5.40786 77.455 10.9148 77.4182 49.7642Z" fill="url(#paint1_linear)"/>
<path d="M132.228 121.272L111.921 111.862C109.933 110.941 107.66 112.392 107.66 114.584V133.405C107.66 135.596 109.933 137.048 111.921 136.127L132.228 126.716C134.546 125.642 134.546 122.347 132.228 121.272Z" fill="white"/>
<defs>
<linearGradient id="paint0_linear" x1="146.439" y1="216.978" x2="-21.8213" y2="160.202" gradientUnits="userSpaceOnUse">
<stop stop-color="#FF005C"/>
<stop offset="1" stop-color="#0047FF" stop-opacity="0.85"/>
</linearGradient>
<linearGradient id="paint1_linear" x1="173.075" y1="41.1774" x2="71.3212" y2="217.421" gradientUnits="userSpaceOnUse">
<stop stop-color="white"/>
<stop offset="1" stop-color="white" stop-opacity="0"/>
</linearGradient>
</defs>
</svg>
