<svg width="329" height="348" viewBox="0 0 329 348" fill="none" xmlns="http://www.w3.org/2000/svg">
<path d="M103.974 66.8339C103.934 108.574 66.4602 173.415 47.7283 200.618C5.71277 273.391 170.678 349.341 193.249 263.072C215.819 176.803 336.933 231.407 270.782 112.072C204.631 -7.26281 104.023 14.6588 103.974 66.8339Z" fill="url(#paint0_linear)"/>
<path d="M103.974 66.8339C103.934 108.574 66.4602 173.415 47.7283 200.618C5.71277 273.391 170.678 349.341 193.249 263.072C215.819 176.803 336.933 231.407 270.782 112.072C204.631 -7.26281 104.023 14.6588 103.974 66.8339Z" fill="url(#paint1_linear)"/>
<defs>
<linearGradient id="paint0_linear" x1="196.669" y1="291.404" x2="-29.3062" y2="215.153" gradientUnits="userSpaceOnUse">
<stop stop-color="#FF005C"/>
<stop offset="1" stop-color="#01FFE7"/>
</linearGradient>
<linearGradient id="paint1_linear" x1="232.442" y1="55.3017" x2="95.7853" y2="291.999" gradientUnits="userSpaceOnUse">
<stop stop-color="white"/>
<stop offset="1" stop-color="white" stop-opacity="0"/>
</linearGradient>
</defs>
</svg>
