<svg width="39" height="39" viewBox="0 0 39 39" fill="none" xmlns="http://www.w3.org/2000/svg">
<path d="M28.4342 23.3708C27.9451 23.127 25.5629 21.9619 25.1193 21.801C24.6756 21.6369 24.3506 21.5572 24.0256 22.0448C23.7055 22.5241 22.7727 23.6112 22.4916 23.933C22.2072 24.2499 21.9245 24.2743 21.4419 24.0549C20.9544 23.8111 19.3895 23.2992 17.537 21.6418C16.094 20.3499 15.1255 18.7655 14.8395 18.278C14.5568 17.7905 14.8086 17.5224 15.0507 17.2786C15.2718 17.0592 15.5399 16.718 15.7836 16.4287C16.0209 16.1346 16.0989 15.9396 16.2663 15.6228C16.4288 15.2815 16.3459 15.0134 16.2256 14.7712C16.1038 14.5275 15.1336 12.1388 14.7274 11.1865C14.3374 10.2375 13.936 10.3577 13.6354 10.3577C13.3559 10.3334 13.0325 10.3334 12.7075 10.3334C12.3825 10.3334 11.8576 10.4536 11.4124 10.9167C10.9688 11.4043 9.71425 12.5742 9.71425 14.9386C9.71425 17.303 11.453 19.5942 11.6951 19.9355C11.9373 20.2524 15.1158 25.1274 19.9826 27.2236C21.1429 27.7111 22.0464 28.0036 22.7516 28.2458C23.9119 28.6146 24.9697 28.5626 25.8066 28.4424C26.7394 28.2945 28.678 27.2708 29.0826 26.1251C29.497 24.9795 29.497 24.0289 29.3751 23.8095C29.2549 23.5901 28.9364 23.4683 28.4489 23.2489L28.4342 23.3708ZM19.5991 35.3438H19.5731C16.6969 35.3438 13.8466 34.5638 11.3587 33.1012L10.7738 32.7535L4.68 34.3379L6.31313 28.4147L5.92475 27.8054C4.316 25.2444 3.46125 22.295 3.46125 19.2579C3.46125 10.4097 10.7006 3.19475 19.617 3.19475C23.9297 3.19475 27.9776 4.87663 31.0261 7.9235C34.073 10.9444 35.7533 14.9923 35.7533 19.2822C35.7467 28.1287 28.5058 35.3454 19.6089 35.3454L19.5991 35.3438ZM33.345 5.60462C29.64 2.02312 24.765 0 19.5731 0C8.87738 0 0.169 8.66775 0.164125 19.3261C0.164125 22.7321 1.05625 26.0536 2.756 28.9867L0 39L10.2944 36.3155C13.1316 37.8479 16.3231 38.662 19.5731 38.6669H19.5829C30.2835 38.6669 38.9951 29.9959 39 19.3359C39 14.1749 36.985 9.31775 33.3206 5.668" fill="white"/>
</svg>
